<svg xmlns="http://www.w3.org/2000/svg">
  <symbol id="shield" viewBox="0 0 24 24"><path fill="currentColor" d="M12 2 4 5v6c0 5 3.8 9.7 8 11 4.2-1.3 8-6 8-11V5l-8-3z"/></symbol>
  <symbol id="alert" viewBox="0 0 24 24"><path fill="currentColor" d="M1 21h22L12 2 1 21zm12-3h-2v-2h2v2zm0-4h-2v-4h2v4z"/></symbol>
  <symbol id="x" viewBox="0 0 24 24"><path fill="currentColor" d="M18.3 5.71 12 12l6.3 6.29-1.41 1.41L12 13.41l-6.29 6.29-1.41-1.41L10.59 12 4.29 5.71 5.7 4.3 12 10.59 18.3 4.3z"/></symbol>
  <symbol id="gauge" viewBox="0 0 24 24"><path fill="currentColor" d="M12 3a9 9 0 0 0-9 9h2a7 7 0 1 1 14 0h2a9 9 0 0 0-9-9zm-1 9-4 4 1.5 1.5 4-4V8h-1.5V12z"/></symbol>
  <symbol id="coin" viewBox="0 0 24 24"><path fill="currentColor" d="M12 2C6.5 2 2 4.2 2 7v10c0 2.8 4.5 5 10 5s10-2.2 10-5V7c0-2.8-4.5-5-10-5zm0 2c4.4 0 8 .9 8 3s-3.6 3-8 3-8-.9-8-3 3.6-3 8-3zm0 16c-4.4 0-8-.9-8-3V9c1.8 1.2 4.9 2 8 2s6.2-.8 8-2v8c0 2.1-3.6 3-8 3z"/></symbol>
  <symbol id="spark" viewBox="0 0 24 24"><path fill="currentColor" d="M12 2 9 9 2 12l7 3 3 7 3-7 7-3-7-3z"/></symbol>
  <symbol id="clock" viewBox="0 0 24 24"><path fill="currentColor" d="M12 2a10 10 0 1 0 .001 20.001A10 10 0 0 0 12 2zm1 11h5v-2h-2V7h-2v6z"/></symbol>
  <symbol id="trend" viewBox="0 0 24 24"><path fill="currentColor" d="M3 17h18v2H3v-2zm0-6 4 4 4-4 6 6 4-4v4H3V11z"/></symbol>
  <symbol id="map" viewBox="0 0 24 24"><path fill="currentColor" d="M15 4 9 6 3 4v16l6 2 6-2 6 2V6l-6-2zM9 8l6-2v12l-6 2V8z"/></symbol>
  <symbol id="info" viewBox="0 0 24 24"><path fill="currentColor" d="M12 2a10 10 0 1 0 .001 20.001A10 10 0 0 0 12 2zm1 15h-2v-6h2v6zm0-8h-2V7h2v2z"/></symbol>
</svg>
